<svg width="20" height="18" viewBox="0 0 20 18" fill="none" xmlns="http://www.w3.org/2000/svg">
<path d="M3.83259 10.0295L18.3326 10.0295C18.5653 10.0071 18.7819 9.88883 18.9398 9.69801C19.0976 9.5072 19.1852 9.25772 19.1852 8.99883C19.1852 8.73994 19.0976 8.49046 18.9398 8.29964C18.7819 8.10883 18.5653 7.99054 18.3326 7.96814L3.83259 7.96814L8.76277 2.50434C8.86463 2.41265 8.94791 2.29819 9.00717 2.16842C9.06643 2.03865 9.10033 1.89649 9.10668 1.75121C9.11302 1.60593 9.09166 1.4608 9.04398 1.32529C8.99631 1.18978 8.92339 1.06694 8.82999 0.964781C8.73659 0.862621 8.62481 0.78344 8.50194 0.732404C8.37907 0.681369 8.24788 0.659626 8.11691 0.668595C7.98595 0.677563 7.85817 0.717042 7.7419 0.784455C7.62563 0.851867 7.52349 0.945698 7.44215 1.05982L0.931184 8.27592C0.761576 8.46908 0.666672 8.72799 0.666672 8.99753C0.666672 9.26708 0.761576 9.52599 0.931184 9.71914L7.44215 16.9365C7.52323 17.0513 7.62528 17.1458 7.74162 17.2138C7.85795 17.2818 7.98594 17.3218 8.11719 17.3312C8.24844 17.3405 8.37999 17.319 8.50322 17.268C8.62644 17.2171 8.73856 17.1378 8.83222 17.0355C8.92588 16.9331 8.99896 16.81 9.04669 16.6741C9.09441 16.5383 9.11569 16.3928 9.10913 16.2471C9.10257 16.1015 9.06833 15.9591 9.00864 15.8292C8.94895 15.6993 8.86516 15.5848 8.76277 15.4933L3.82326 10.0295H3.83259Z" fill="white"/>
</svg>
