<svg width="20" height="18" viewBox="0 0 20 18" fill="none" xmlns="http://www.w3.org/2000/svg">
<path d="M16.1675 10.0295L1.66741 10.0295C1.43474 10.0071 1.2181 9.88883 1.06026 9.69801C0.90242 9.5072 0.814857 9.25772 0.814857 8.99883C0.814857 8.73994 0.90242 8.49046 1.06026 8.29964C1.2181 8.10882 1.43474 7.99054 1.66741 7.96814L16.1675 7.96814L11.2373 2.50434C11.1354 2.41265 11.0521 2.29819 10.9929 2.16842C10.9336 2.03865 10.8997 1.89649 10.8934 1.75121C10.887 1.60593 10.9084 1.4608 10.9561 1.32529C11.0037 1.18978 11.0767 1.06694 11.1701 0.964781C11.2635 0.862621 11.3752 0.78344 11.4981 0.732404C11.621 0.681369 11.7522 0.659626 11.8831 0.668595C12.0141 0.677563 12.1419 0.717042 12.2581 0.784455C12.3744 0.851867 12.4766 0.945698 12.5579 1.05982L19.0689 8.27592C19.2385 8.46908 19.3334 8.72798 19.3334 8.99753C19.3334 9.26708 19.2385 9.52599 19.0689 9.71914L12.5579 16.9365C12.4768 17.0513 12.3748 17.1458 12.2584 17.2138C12.1421 17.2818 12.0141 17.3218 11.8829 17.3312C11.7516 17.3405 11.6201 17.319 11.4968 17.268C11.3736 17.2171 11.2615 17.1378 11.1678 17.0355C11.0742 16.9331 11.0011 16.81 10.9534 16.6741C10.9056 16.5383 10.8844 16.3928 10.8909 16.2471C10.8975 16.1015 10.9317 15.9591 10.9914 15.8292C11.0511 15.6993 11.1349 15.5848 11.2373 15.4933L16.1768 10.0295H16.1675Z" fill="white"/>
</svg>
